<svg xmlns="http://www.w3.org/2000/svg" xmlns:xlink="http://www.w3.org/1999/xlink" width="584pt" height="829pt" viewBox="0.00 0.00 584.00 829.00">
<g id="graph0" class="graph" transform="scale(1 1) rotate(0) translate(4 825.4)">
<title>G</title>
<polygon fill="white" stroke="none" points="-4,4 -4,-825.4 580.07,-825.4 580.07,4 -4,4"/>
<!-- start -->
<g id="node1" class="node">
<title>start</title>
<polygon fill="lightgreen" stroke="black" points="326.83,-821.4 123.05,-779.8 326.83,-738.2 530.6,-779.8 326.83,-821.4"/>
<polyline fill="none" stroke="black" points="134.81,-782.2 134.81,-777.4"/>
<polyline fill="none" stroke="black" points="315.07,-740.6 338.59,-740.6"/>
<polyline fill="none" stroke="black" points="518.85,-777.4 518.85,-782.2"/>
<polyline fill="none" stroke="black" points="338.59,-819 315.07,-819"/>
<text xml:space="preserve" text-anchor="middle" x="326.83" y="-784" font-family="Times,serif" font-size="14.00">Indulás</text>
<text xml:space="preserve" text-anchor="middle" x="326.83" y="-767.2" font-family="Times,serif" font-size="14.00">(Felhasználó megnyitja az oldalt)</text>
</g>
<!-- login_page -->
<g id="node2" class="node">
<title>login_page</title>
<polygon fill="lightblue" stroke="black" points="433.96,-701.2 219.69,-701.2 219.69,-665.2 433.96,-665.2 433.96,-701.2"/>
<text xml:space="preserve" text-anchor="middle" x="326.83" y="-679" font-family="Times,serif" font-size="14.00">Bejelentkezési oldal megjelenítése</text>
</g>
<!-- start&#45;&gt;login_page -->
<g id="edge1" class="edge">
<title>start-&gt;login_page</title>
<path fill="none" stroke="gray" d="M326.83,-737.86C326.83,-729.37 326.83,-720.6 326.83,-712.68"/>
<polygon fill="gray" stroke="gray" points="330.33,-712.95 326.83,-702.95 323.33,-712.95 330.33,-712.95"/>
</g>
<!-- input_data -->
<g id="node3" class="node">
<title>input_data</title>
<polygon fill="lightblue" stroke="black" points="417.66,-628.2 85.46,-628.2 0,-545 332.2,-545 417.66,-628.2"/>
<text xml:space="preserve" text-anchor="middle" x="208.83" y="-590.8" font-family="Times,serif" font-size="14.00">Felhasználó megadja az adatokat</text>
<text xml:space="preserve" text-anchor="middle" x="208.83" y="-574" font-family="Times,serif" font-size="14.00">(Felhasználónév &amp; Jelszó)</text>
</g>
<!-- login_page&#45;&gt;input_data -->
<g id="edge2" class="edge">
<title>login_page-&gt;input_data</title>
<path fill="none" stroke="gray" d="M305.18,-664.85C294.71,-656.45 281.56,-645.91 268.37,-635.33"/>
<polygon fill="gray" stroke="gray" points="270.9,-632.88 260.91,-629.35 266.52,-638.34 270.9,-632.88"/>
</g>
<!-- submit_button -->
<g id="node4" class="node">
<title>submit_button</title>
<polygon fill="lightblue" stroke="black" points="316.86,-508 108.79,-508 108.79,-472 316.86,-472 316.86,-508"/>
<text xml:space="preserve" text-anchor="middle" x="212.83" y="-485.8" font-family="Times,serif" font-size="14.00">Bejelentkezés gomb megnyomása</text>
</g>
<!-- input_data&#45;&gt;submit_button -->
<g id="edge3" class="edge">
<title>input_data-&gt;submit_button</title>
<path fill="none" stroke="gray" d="M210.56,-544.66C210.92,-536.17 211.29,-527.4 211.62,-519.48"/>
<polygon fill="gray" stroke="gray" points="215.11,-519.89 212.03,-509.75 208.12,-519.6 215.11,-519.89"/>
</g>
<!-- server_auth -->
<g id="node5" class="node">
<title>server_auth</title>
<path fill="lightblue" stroke="black" d="M310.75,-418.8C310.75,-421.67 274.93,-424 230.83,-424 186.73,-424 150.9,-421.67 150.9,-418.8 150.9,-418.8 150.9,-372 150.9,-372 150.9,-369.13 186.73,-366.8 230.83,-366.8 274.93,-366.8 310.75,-369.13 310.75,-372 310.75,-372 310.75,-418.8 310.75,-418.8"/>
<path fill="none" stroke="black" d="M310.75,-418.8C310.75,-415.93 274.93,-413.6 230.83,-413.6 186.73,-413.6 150.9,-415.93 150.9,-418.8"/>
<text xml:space="preserve" text-anchor="middle" x="230.83" y="-399.6" font-family="Times,serif" font-size="14.00">Szerver oldali azonosítás</text>
<text xml:space="preserve" text-anchor="middle" x="230.83" y="-382.8" font-family="Times,serif" font-size="14.00">(Adatbázis ellenőrzése)</text>
</g>
<!-- submit_button&#45;&gt;server_auth -->
<g id="edge4" class="edge">
<title>submit_button-&gt;server_auth</title>
<path fill="none" stroke="gray" d="M216.21,-471.58C218.19,-461.39 220.78,-448.1 223.22,-435.53"/>
<polygon fill="gray" stroke="gray" points="226.64,-436.26 225.12,-425.78 219.77,-434.93 226.64,-436.26"/>
<text xml:space="preserve" text-anchor="middle" x="250.85" y="-445" font-family="Times,serif" font-size="10.00">Kérés küldése</text>
</g>
<!-- email_ok -->
<g id="node7" class="node">
<title>email_ok</title>
<polygon fill="yellow" stroke="black" points="255.83,-329.8 107.1,-311.8 255.83,-293.8 404.56,-311.8 255.83,-329.8"/>
<text xml:space="preserve" text-anchor="middle" x="255.83" y="-307.6" font-family="Times,serif" font-size="14.00">Felhasználónév létezik?</text>
</g>
<!-- server_auth&#45;&gt;email_ok -->
<g id="edge5" class="edge">
<title>server_auth-&gt;email_ok</title>
<path fill="none" stroke="gray" d="M239.43,-366.32C242.03,-357.82 244.89,-348.51 247.47,-340.07"/>
<polygon fill="gray" stroke="gray" points="250.76,-341.29 250.34,-330.71 244.07,-339.24 250.76,-341.29"/>
</g>
<!-- password_ok -->
<g id="node6" class="node">
<title>password_ok</title>
<polygon fill="yellow" stroke="black" points="255.83,-245.8 162.48,-227.8 255.83,-209.8 349.18,-227.8 255.83,-245.8"/>
<text xml:space="preserve" text-anchor="middle" x="255.83" y="-223.6" font-family="Times,serif" font-size="14.00">Jelszó helyes?</text>
</g>
<!-- chat_page -->
<g id="node8" class="node">
<title>chat_page</title>
<polygon fill="lightgreen" stroke="black" points="295.11,-159 146.55,-159 146.55,-123 295.11,-123 295.11,-159"/>
<text xml:space="preserve" text-anchor="middle" x="220.83" y="-136.8" font-family="Times,serif" font-size="14.00">Belépés a chat felületre</text>
</g>
<!-- password_ok&#45;&gt;chat_page -->
<g id="edge8" class="edge">
<title>password_ok-&gt;chat_page</title>
<path fill="none" stroke="gray" d="M249.24,-210.85C244.46,-199.27 237.87,-183.3 232.24,-169.65"/>
<polygon fill="gray" stroke="gray" points="235.61,-168.65 228.56,-160.74 229.14,-171.32 235.61,-168.65"/>
<text xml:space="preserve" text-anchor="middle" x="249.31" y="-182.8" font-family="Times,serif" font-size="10.00">Igen</text>
</g>
<!-- error_message -->
<g id="node9" class="node">
<title>error_message</title>
<polygon fill="salmon" stroke="black" points="576.07,-161.8 313.59,-161.8 313.59,-120.2 576.07,-120.2 576.07,-161.8"/>
<text xml:space="preserve" text-anchor="middle" x="444.83" y="-145.2" font-family="Times,serif" font-size="14.00">Hibaüzenet megjelenítése</text>
<text xml:space="preserve" text-anchor="middle" x="444.83" y="-128.4" font-family="Times,serif" font-size="14.00">(pl. 'Hibás jelszó' vagy 'A fiók nem létezik')</text>
</g>
<!-- password_ok&#45;&gt;error_message -->
<g id="edge9" class="edge">
<title>password_ok-&gt;error_message</title>
<path fill="none" stroke="gray" d="M282.62,-214.56C303.51,-205.03 333.26,-191.51 359.39,-179.8 368.85,-175.56 378.9,-171.09 388.67,-166.75"/>
<polygon fill="gray" stroke="gray" points="390.01,-169.99 397.74,-162.74 387.18,-163.59 390.01,-169.99"/>
<text xml:space="preserve" text-anchor="middle" x="369.11" y="-182.8" font-family="Times,serif" font-size="10.00">Nem</text>
</g>
<!-- email_ok&#45;&gt;password_ok -->
<g id="edge6" class="edge">
<title>email_ok-&gt;password_ok</title>
<path fill="none" stroke="gray" d="M255.83,-293.41C255.83,-282.97 255.83,-269.44 255.83,-257.46"/>
<polygon fill="gray" stroke="gray" points="259.33,-257.68 255.83,-247.68 252.33,-257.68 259.33,-257.68"/>
<text xml:space="preserve" text-anchor="middle" x="264.71" y="-266.8" font-family="Times,serif" font-size="10.00">Igen</text>
</g>
<!-- email_ok&#45;&gt;error_message -->
<g id="edge7" class="edge">
<title>email_ok-&gt;error_message</title>
<path fill="none" stroke="gray" d="M282.5,-296.8C304.03,-284.82 334.47,-266.3 357.83,-245.8 383.38,-223.37 407.83,-193.16 424.26,-171.12"/>
<polygon fill="gray" stroke="gray" points="427.02,-173.27 430.11,-163.14 421.38,-169.13 427.02,-173.27"/>
<text xml:space="preserve" text-anchor="middle" x="402.27" y="-224.8" font-family="Times,serif" font-size="10.00">Nem</text>
</g>
<!-- end_success -->
<g id="node10" class="node">
<title>end_success</title>
<polygon fill="lightgreen" stroke="black" points="220.83,-83.2 83.93,-41.6 220.83,0 357.73,-41.6 220.83,-83.2"/>
<polyline fill="none" stroke="black" points="95.41,-45.09 95.41,-38.11"/>
<polyline fill="none" stroke="black" points="209.35,-3.49 232.31,-3.49"/>
<polyline fill="none" stroke="black" points="346.25,-38.11 346.25,-45.09"/>
<polyline fill="none" stroke="black" points="232.31,-79.71 209.35,-79.71"/>
<text xml:space="preserve" text-anchor="middle" x="220.83" y="-45.8" font-family="Times,serif" font-size="14.00">Sikeres bejelentkezés</text>
<text xml:space="preserve" text-anchor="middle" x="220.83" y="-29" font-family="Times,serif" font-size="14.00">(Folyamat vége)</text>
</g>
<!-- chat_page&#45;&gt;end_success -->
<g id="edge11" class="edge">
<title>chat_page-&gt;end_success</title>
<path fill="none" stroke="gray" d="M220.83,-122.59C220.83,-114.64 220.83,-104.75 220.83,-94.68"/>
<polygon fill="gray" stroke="gray" points="224.33,-94.83 220.83,-84.83 217.33,-94.83 224.33,-94.83"/>
</g>
<!-- error_message&#45;&gt;login_page -->
<g id="edge10" class="edge">
<title>error_message-&gt;login_page</title>
<path fill="none" stroke="gray" d="M445.2,-162.22C445.48,-179.4 445.83,-204.72 445.83,-226.8 445.83,-587.6 445.83,-587.6 445.83,-587.6 445.83,-621.15 416.48,-644.71 386.94,-659.93"/>
<polygon fill="gray" stroke="gray" points="385.78,-656.59 378.31,-664.11 388.84,-662.89 385.78,-656.59"/>
<text xml:space="preserve" text-anchor="middle" x="498.03" y="-398.4" font-family="Times,serif" font-size="10.00">Vissza a bejelentkezéshez</text>
<text xml:space="preserve" text-anchor="middle" x="498.03" y="-386.4" font-family="Times,serif" font-size="10.00">vagy újrapróbálkozás</text>
</g>
</g>
</svg>